/* XPM */
static char *ee0c52e5de464502afc4b9356bf403b5a9MV9FRmqRU5EG6n[] = {
/* columns rows colors chars-per-pixel */
"63 64 225 2 ",
"   c #000000",
".  c #090000",
"X  c #1C0801",
"o  c #28170D",
"O  c #2A1F19",
"+  c #271D13",
"@  c #351F12",
"#  c #3A1D0B",
"$  c #2D241D",
"%  c #3D2414",
"&  c #39241E",
"*  c #372618",
"=  c #3C230D",
"-  c #2D2220",
";  c #3B2D25",
":  c #352A24",
">  c #3A3024",
",  c #3E342C",
"<  c #34312C",
"1  c #3F3430",
"2  c #441D07",
"3  c #691D1D",
"4  c #4E2303",
"5  c #4A240B",
"6  c #492809",
"7  c #522601",
"8  c #532B04",
"9  c #592E05",
"0  c #552E0D",
"q  c #5A2E0D",
"w  c #563204",
"e  c #583201",
"r  c #55310D",
"t  c #5A320C",
"y  c #452A15",
"u  c #4C2C14",
"i  c #452C1C",
"p  c #4D2E1B",
"a  c #422518",
"s  c #532D14",
"d  c #592C12",
"f  c #522D1B",
"g  c #592E1D",
"h  c #502713",
"j  c #4D3315",
"k  c #4C321D",
"l  c #543213",
"z  c #593214",
"x  c #54321D",
"c  c #5A331A",
"v  c #57391D",
"b  c #633A0A",
"n  c #62340E",
"m  c #662111",
"M  c #67221D",
"N  c #623415",
"B  c #633A13",
"V  c #633C1B",
"C  c #64341B",
"Z  c #462F24",
"A  c #4C2F21",
"S  c #532E21",
"D  c #5A2C24",
"F  c #463023",
"G  c #4C3322",
"H  c #43362D",
"J  c #4B392A",
"K  c #533323",
"L  c #593521",
"P  c #553A24",
"I  c #5B3A23",
"U  c #533329",
"Y  c #5C3329",
"T  c #543B2A",
"R  c #5B392D",
"E  c #423531",
"W  c #433933",
"Q  c #4A3831",
"!  c #523B34",
"~  c #5E3933",
"^  c #633B27",
"/  c #613F34",
"(  c #6D2823",
")  c #6B4315",
"_  c #754A1B",
"`  c #734B17",
"'  c #674007",
"]  c #59412C",
"[  c #56463B",
"{  c #634327",
"}  c #764E2A",
"|  c #764D27",
" . c #7A5225",
".. c #7A522D",
"X. c #785527",
"o. c #654731",
"O. c #6B523E",
"+. c #7D5B34",
"@. c #785535",
"#. c #584946",
"$. c #5E584D",
"%. c #6E5641",
"&. c #6A5849",
"*. c #675446",
"=. c #795E4B",
"-. c #7A5E51",
";. c #7F6348",
":. c #6E6053",
">. c #796355",
",. c #786C66",
"<. c #7D7367",
"1. c #815D36",
"2. c #825A41",
"3. c #836757",
"4. c #AB7C50",
"5. c #A8794D",
"6. c #836E63",
"7. c #857C72",
"8. c #8B7469",
"9. c #948374",
"0. c #90827A",
"q. c #97877A",
"w. c #BA9261",
"e. c #AC8A71",
"r. c #BBA47A",
"t. c #C19968",
"y. c #E79C7F",
"u. c #D4AA79",
"i. c #D0AD75",
"p. c #AB978C",
"a. c #B59B86",
"s. c #AA9991",
"d. c #A69991",
"f. c #BEAB9D",
"g. c #BFB5AB",
"h. c #938F8C",
"j. c #EB9789",
"k. c #F0988C",
"l. c #F5938D",
"z. c #FB8C95",
"x. c #EE9693",
"c. c #EF9098",
"v. c #F39692",
"b. c #F49998",
"n. c #F79396",
"m. c #F48E89",
"M. c #CCAB8B",
"N. c #EFA58A",
"B. c #EEA485",
"V. c #F2A889",
"C. c #E7BA8A",
"Z. c #F1A291",
"A. c #E9BD96",
"S. c #FC92A6",
"D. c #C7B4A6",
"F. c #DFC89E",
"G. c #EDC588",
"H. c #F4CA84",
"J. c #FBCF83",
"K. c #F5CB8C",
"L. c #FCCE8D",
"P. c #F1C687",
"I. c #FCD386",
"U. c #F7D38C",
"Y. c #FDD28B",
"T. c #FBD589",
"R. c #EDC995",
"E. c #F3C594",
"W. c #FBC591",
"Q. c #F5CC93",
"!. c #FDCD93",
"~. c #FEC59C",
"^. c #F5CC9C",
"/. c #FDCC9A",
"(. c #EFD69E",
"). c #F5D292",
"_. c #FDD292",
"`. c #FFDA95",
"'. c #F4D39D",
"]. c #FCD29B",
"[. c #FEDB9D",
"{. c #DDD2B2",
"}. c #CDC3B6",
"|. c #E8C9AA",
" X c #FCCCA1",
".X c #ECD4A3",
"XX c #EDD3AA",
"oX c #E5D0A5",
"OX c #FBD4A2",
"+X c #FCDAA5",
"@X c #F6DAAC",
"#X c #FBDBA9",
"$X c #FAD3A7",
"%X c #E6D7B3",
"&X c #EBD5B3",
"*X c #EADCB3",
"=X c #E2D7B9",
"-X c #F4D9B1",
";X c #FFD7B3",
":X c #FFE1AC",
">X c #FDE1B8",
",X c #FEE6BB",
"<X c #FFF0BE",
"1X c #D2CAC2",
"2X c #EADCC1",
"3X c #FEEDC3",
"4X c #F3E4CC",
"5X c #F6E3C3",
"6X c #FFF9CF",
"7X c #FFF1CC",
"8X c #FFEDD4",
"9X c #FAE9D8",
"0X c #FFF9D5",
"qX c #FFFADC",
"wX c #FFF6D8",
"eX c #FDEDE4",
"rX c #FFFAE2",
"tX c #FEF5EB",
"yX c #FEFBEC",
"uX c #F9F4E9",
"iX c #F6FAF2",
"pX c #FEFDF4",
"aX c #F7FDFB",
"sX c #FEFEFE",
"dX c #F7F6F3",
/* pixels */
"                                                                                                                              ",
"                                                                                                                              ",
"                                                                                                                              ",
"                                                                                                                              ",
"                                                                                                                              ",
"                                                                                                                              ",
"                                                                                                                              ",
"                                                                                                                              ",
"                                                                                                                              ",
"                                                                                                                              ",
"                                                        . . . . . .                                   . . . . . .             ",
"                                                        W E W W W ,.                                  #.W W W W W             ",
"                                                        z c c L T ,.                                  H L L c v ]             ",
"                                                        z z z x K 6.                                  Q K x x x k             ",
"                                                  % P { K.].A.4 I 6.                                  ! l 4 ^.^.^.{ K Z       ",
"                                                  ] k L K.^.C.d x 3.                                  ! ^ N +X^.'.0 K &       ",
"                                                  u V V H.`.C.) w ;.. .                         . . . s 7 b `._.G.n c /       ",
"                                                  x 0 d T.K.!.#X$XM.> W h.                      $.: * |. X+XU.K.[.B 2 p       ",
"                                                  l 0 N !./._.!.Y.u.z S 0.                      &.x r ^.U._._.!./.q 0 A       ",
"                                                  l z C !.!._._.Y.u.z S 0.                      &.x r ^.U._.L.!./.n 0 p       ",
"                                            T ~ c [.[.~.v.x.V.!.Y.u.z S 9.                      &.x q /.I./.B.v.b.M g K       ",
"                                            J U s K.).~.v.v.B.].Y.u.z S 9.                      &.x q /.H./.B.v.x.( g G       ",
"                                            j g q I.I.~.z.S.Z.L.I.u.c S 8.. . . . . . . . . . . %.c t E.Y./.j.n.c.3 d k       ",
"                                            j g q I.I.~.z.S.Z.L.I.u.z S a ; Q ; , 1 , E , , , , G u 8 E.T./.j.n.c.3 d k       ",
"                                            l g d I.I.~.m.b.N.L.I.u.r q 8 N 0 z z z z z r z z l r q 7 E.Y./.y.k.j.m q l       ",
"                                            l g d I.I.~.m.b.N.L.I.u.r q q N 0 q r z z d r l l z r 7 b E.Y./.y.k.j.m q l       ",
"                                            l g q I.I.!.W.~.!.T.I._.K._.)._._._.)._.)._._._.]._.K.K._.`.Y._.!.W.!.W._.^.{ k > ",
"                                            l g q I.I.!.!. X_.I.I.!._.L._._._._.`._.`._._._.`._.).!.P._.Y.L.!./.!.!.!.^.u i & ",
"                                            l g t I.I.!.Y._.Y.T.T._.L.J.Y.Y.Y.Y.Y.Y.Y.Y.Y.Y.Y.Y.H.L.Y.H.Y.L.U.Y.Y.Y.J.K.8 s i ",
"                                            l g q I.I.!.Y.!.Y.I.I._._.J.U.Y.Y.L.Y.Y.U.Y.Y.Y.Y.Y.H._.K.Y.Y.Y.T.Y.Y.Y.I._.7 I G ",
"                                            l D t I.U.L.Y.Y.Y.Y.I.Y.Y._.Y.].!.K.T.Y.).'.'._.Y.Y.P.+X)._.Y.Y.I.Y.T.Y.Y._.t c K ",
"                                            l D t I.U.L.Y.Y.Y.Y.I.Y.L.L.Y.[.].!.I.U.].OX+X].U.U.).'.[.Y.Y.Y.I.Y.Y.Y.Y._.t c K ",
"                                            l D t I.Y.L.T._._.!.Y.Y._.].w.r 0 5._.).3XyXyX>XY._. .V 8 /.).).T.Y.Y.Y.I.).t c K ",
"                                            l D t I.Y.L.T._._.L.Y.Y._.].t.r z 4._.).3XyXyX>XU._. .z t E.).).T.Y.Y.Y.I.).t c K ",
"                    . . . . . . . . . . . . l Y r I.L.L.T.Y.L.Y._.'.*X2Xa.u f e.%X{.9XpXtXwX%X&Xo.x c &X=X%XR.L.I.I.I.).t z K ",
"                    , H H H H H H H H H , Q 6 D r I.L.L.T.Y.Y.Y.Y.:X6XqXM.f f e.0XqX9.; H }.0X7X@.p s 8X0X6X'.K.I.I.I.).t c K ",
"                    j c z z z z z z z z z q 7 C e Y.L.L.T.Y.Y.].(.5XpXsXg.U K s.iXsX9.x I }.sXpX*.K k eXsXpX&XOXU.Y.T.].t z G ",
"                    I l z z z z z z z z c V 9 C e Y.L.L.T.Y.Y._.(.5XpXsXg.G S p.iXsX9.u x 1XsXsX*.L G eXiXpX&XOXU.Y.T._.r z G ",
"        y v v I c V ].G.Y._._._.Y.Y.Y._._._.Y._.Y.Y.Y.Y.U.Y.+XpXpXsXpXsXsXsXsXsXsXsXsXsXsXsXsXsXsXsXsXsXsXsXsXpXrX'.U.!.t c G ",
"        i x x I s r OXP.Y._._._.Y._.Y._._.Y.Y._.Y.Y.Y.Y.U._.+XpXpXsXpXsXsXsXsXsXsXsXsXsXsXsXsXsXsXsXsXsXsXsXsXsXrX'.U.!.t c G ",
"  . . . | B `  .) _ P._.Y.Y.Y.Y.Y.Y.Y.Y.Y.Y.Y.Y.Y.Y.Y.Y.Y._.#XsXsXsXpXsXsXsXsXsXsXsXsXsXsXsXsXsXsXsXsXsXsXsXsXsXyX.XU.].t x G ",
"  W , J ^.$XR.OX+XOXL.Y.Y.Y.Y.Y.Y.Y.Y.Y.Y.Y.Y.Y.Y.Y.Y.Y.Y._.#XsXsXsXpXsXsXsXsXsXsXsXsXsXsXsXsXsXsXsXsXsXsXsXsXsXyX.XU.].t x G ",
"  F x d ].!.I.Y.Y._.Y.Y.Y.Y.Y.Y.Y.Y.Y.Y.Y.Y.Y.Y.Y.Y.Y.Y.I._.#XsXsXsXpXsXsXsXsXsXsXsXsXsXsXsXsXsXsXsXsXsXsXsXsXsXtXF.R.$XP p H ",
"  F x d ].!.I.Y.Y._.Y.Y.Y.Y.Y.Y.Y.Y.Y.Y.Y.Y.Y.Y.Y.Y.Y.Y.I._.#XsXsXsXpXsXsXsXsXsXsXsXsXsXsXsXsXsXsXsXsXsXsXsXsXsXtXr.i.M.3.=.:.",
"  Z x d /.L.I.I.Y.Y.Y.Y.Y.Y.Y.Y.Y.Y.Y.Y.Y.Y.Y.Y.Y.Y.Y.Y.Y._.#XpXpXsXpXsXsXsXsXsXsXsXsXsXsXsXsXsXsXsXsXsXsXsXsXsXyXj 0 x       ",
"  Z x d /.L.I.I.Y.Y.Y.Y.Y.Y.Y.Y.Y.Y.Y.Y.Y.Y.Y.Y.Y.Y.Y.Y.U._.#XpXpXsXpXsXsXsXsXsXsXsXsXsXsXsXsXsXsXsXsXsXsXsXsXsXyXu z f       ",
"  Z f q /.L.I.I.Y.Y.Y.Y.Y.Y.Y.Y.Y.Y.Y.Y.Y.Y.Y.Y.Y.Y.Y.Y.Y.Y.[.3X<X8XsXsXsXsXsXsXsXsXsXsXsXsXsXsXsXsXsXsXsXsX4X3X,Xc f x       ",
"  Z x q /.L.I.I.Y.Y.Y.Y.Y.Y.Y.Y.Y.Y.Y.Y.Y.Y.Y.Y.Y.Y.Y.Y.Y._.).XX.X4XsXsXsXsXsXsXsXsXsXsXsXsXsXsXsXsXsXsXsXsX=XoX.Xd x x       ",
"  F x q ].L.I.I.Y.Y.Y.Y.Y.Y.Y.Y.Y.Y.Y.Y.Y.Y.Y.Y.Y.Y.Y.Y.Y.I.I._.U.>XsXaXsXsXsXsXsXsXsXsXsXsXsXsXsXsXsXsXpXpXXXY.L.q d x       ",
"  F x q ].L.I.I.Y.Y.Y.Y.Y.Y.Y.Y.Y.Y.Y.Y.Y.Y.Y.Y.Y.Y.Y.Y.Y.I.I.!.U.>XsXsXsXsXsXsXsXsXsXsXsXsXsXsXsXsXsXsXiXpXXXY.L.q c L       ",
"  F x q ].L.I.I.Y.Y.Y.Y.Y.Y.Y.Y.Y.Y.Y.Y.Y.Y.Y.Y.Y.Y.Y.Y.Y.Y.I.L.T.-XsXsXsXsXsXsXsXsXsXsXsXsXsXsXsXsXsXsXsXpXXXU.Y.q f k       ",
"  F x q ].L.I.I.Y.Y.Y.Y.Y.Y.Y.Y.Y.Y.Y.Y.Y.Y.Y.Y.Y.Y.Y.Y.Y.Y.I.L.T.-XsXsXsXsXsXsXsXsXsXsXsXsXsXsXsXsXsXsXsXpXXXY.Y.q f k       ",
"  F f 0 ].K.I.I.Y.Y.Y.Y.Y.Y.Y.Y.Y.Y.Y.Y.Y.Y.Y.Y.Y.Y.Y.Y.Y.Y.I._.U.@XsXsXsXsXsXsXsXsXsXsXsXsXsXsXsXsXsXsXpXpXXXU.Y.q d f       ",
"  F f 0 ].K.I.I.Y.Y.Y.Y.Y.Y.Y.Y.Y.Y.Y.Y.Y.Y.Y.Y.Y.Y.Y.Y.Y.Y.I._.U.@XsXsXsXsXsXsXsXsXsXsXsXsXsXsXsXsXsXsXpXpXXXU.Y.q d f       ",
"  Z x q ].Q.U.Y.I.Y.T.Y.Y.Y.Y.Y.Y.Y.Y.Y.Y.Y.Y.Y.Y.Y.Y.Y.I.Y.Y.J.T.@XpXsXdXaXaXpXyXtXpXsXsXsXsXsXtXpXyXsXpXpXXXY._.q f A       ",
"  Z x q ].Q.U.Y.I.Y.T.Y.Y.Y.Y.Y.Y.Y.Y.Y.Y.Y.Y.Y.Y.Y.Y.Y.I.Y.Y.Y.U.@XpXsXaXsXaX}.<.6.1XsXsXsXsXsXq.7.7.dXpXpXXXY.Y.q f A       ",
"  F x q ).L.I.I.T.Y.U.!.)._.Y._.Y._.Y._.Y._.Y._.Y._.U._.Y._.)._.].-XyXsXsXaXsXs.Z K D.uXpXsXsXpX%.L P 9XpXpXXX]._.q u k       ",
"  F x q ).L.I.I.T.Y.U._.)._.Y._.Y._.Y._.Y._.Y._.U._.Y._.Y._.)._.].-XyXsXpXsXpXs.i R f.pXpXsXsXpX%.p K 9XpXpXXX]._.q p G       ",
"  Z x q ).G.U.U.U.Q. .| 1.} ..} ..| 1...+...+.} ........X...X.....2.;.>.d.sXpXp.x ^ o.3.=.-.>.-.u I P eXdXsXO...+.            ",
"  Z x q ).K.U._.`.!.e 9 8 B 8 4 r z r B t z 4 8 r 0 r q 9 q w 0 8 5 k ! 0.pXpXp.p c u p k G F G u x o.eXsXsXk 8 r             ",
"  Z f d ^.OX[.].].;X0 g % - $ o y x v f p i + $ $ $ $ $ $ $ $ $ O ; c 6 9.tXyXa.x s Z O $ - $ - i 2 c eXyXeXp s {             ",
"  Z K d _ ` ' ) b ) 0 f = . . . # c u f I % . . . . . . . . . . . X 5 j T [ [ T ^ h F . . . . . y h c [ $.#.u c u             ",
"  ! T f s s s s s f s f *       @ c L K K &                         * f f f p f x U <           > Y f f p f f f k             ",
"  [ K f s f s f s f f f *       % h L K i *                         @ L f f f f x a <           > / 5 ^ p f f f i             "
};
