/* XPM */
static char *e2118ede67a74b2dbcb949410b427668DP62Mzn5yafrZnwH[] = {
/* columns rows colors chars-per-pixel */
"64 64 234 2 ",
"   c #000000",
".  c #0B0000",
"X  c #1C0B00",
"o  c #3C1B03",
"O  c #3B1E0C",
"+  c #321C0E",
"@  c #2E1E14",
"#  c #201B18",
"$  c #331F15",
"%  c #361E14",
"&  c #29190C",
"*  c #3B210C",
"=  c #352308",
"-  c #2A221D",
";  c #2B2217",
":  c #352314",
">  c #392315",
",  c #34231A",
"<  c #3A261B",
"1  c #382C1D",
"2  c #3D2E26",
"3  c #362A25",
"4  c #38342F",
"5  c #353331",
"6  c #3C3532",
"7  c #2D2825",
"8  c #421A00",
"9  c #4F2B00",
"0  c #4C250C",
"q  c #4B2A0C",
"w  c #47230B",
"e  c #522603",
"r  c #542C02",
"t  c #5A2D04",
"y  c #532B0D",
"u  c #5A2D0D",
"i  c #562709",
"p  c #5A3104",
"a  c #54300C",
"s  c #5D320C",
"d  c #5F390A",
"f  c #432513",
"g  c #4C2512",
"h  c #442A15",
"j  c #4C2A15",
"k  c #442C1C",
"l  c #4C2D1C",
"z  c #4E261C",
"x  c #552D15",
"c  c #592D14",
"v  c #542E1B",
"b  c #5A2E1A",
"n  c #4D331D",
"m  c #4E3014",
"M  c #543116",
"N  c #5A3314",
"B  c #53311B",
"V  c #5B341A",
"C  c #5E3813",
"Z  c #612E09",
"A  c #64350B",
"S  c #68360A",
"D  c #62390A",
"F  c #6D281B",
"G  c #653B19",
"H  c #643815",
"J  c #73301D",
"K  c #462F22",
"L  c #542E22",
"P  c #4C3223",
"I  c #43342B",
"U  c #443527",
"Y  c #533222",
"T  c #5A3322",
"R  c #5B3529",
"E  c #5C3D29",
"W  c #563925",
"Q  c #742727",
"!  c #623A21",
"~  c #6F4518",
"^  c #6C4718",
"/  c #6E430F",
"(  c #574338",
")  c #754C22",
"_  c #7E522C",
"`  c #6E4A36",
"'  c #6D4A3A",
"]  c #644936",
"[  c #70493D",
"{  c #765437",
"}  c #584A41",
"|  c #6F4940",
" . c #775945",
".. c #6C4E45",
"X. c #7C695B",
"o. c #756242",
"O. c #845827",
"+. c #815935",
"@. c #9C743A",
"#. c #8B613B",
"$. c #A56B3D",
"%. c #95734D",
"&. c #886545",
"*. c #A17F59",
"=. c #AA7A4A",
"-. c #957D6D",
";. c #8D7F74",
":. c #997F70",
">. c #A0825E",
",. c #B68C53",
"<. c #B98E55",
"1. c #BB8D5A",
"2. c #B68B58",
"3. c #AE935E",
"4. c #BD935B",
"5. c #B79057",
"6. c #948172",
"7. c #988076",
"8. c #94887B",
"9. c #948272",
"0. c #A0846E",
"q. c #BDA07E",
"w. c #C59B67",
"e. c #C79B74",
"r. c #EA917F",
"t. c #CCA975",
"y. c #CAA578",
"u. c #D8B078",
"i. c #EAB27B",
"p. c #E9A17B",
"a. c #F4CD7E",
"s. c #A18D82",
"d. c #BA9E84",
"f. c #AB978C",
"g. c #BCAC9C",
"h. c #B6A18C",
"j. c #EF8D8E",
"k. c #E59584",
"l. c #EA9885",
"z. c #F98D9C",
"x. c #F28D97",
"c. c #EC9493",
"v. c #F69294",
"b. c #F89097",
"n. c #EC8A97",
"m. c #CCA988",
"M. c #DCB58A",
"N. c #DBB998",
"B. c #CEB394",
"V. c #E6B989",
"C. c #F5B48E",
"Z. c #FEAD9F",
"A. c #F6A593",
"S. c #E7BB96",
"D. c #FCB894",
"F. c #F0A589",
"G. c #FE92A1",
"H. c #D4BDB5",
"J. c #CFBCB5",
"K. c #FFACA2",
"L. c #EDCC8E",
"P. c #EDC682",
"I. c #F3C485",
"U. c #FACD84",
"Y. c #F5CC8C",
"T. c #FDCE8C",
"R. c #F2C987",
"E. c #F6D282",
"W. c #FCD386",
"Q. c #F6D28C",
"!. c #FDD28C",
"~. c #F8D98B",
"^. c #EBC695",
"/. c #F5CB94",
"(. c #FCCE93",
"). c #FEC69C",
"_. c #F4CE9E",
"`. c #FDCD9B",
"'. c #FBC193",
"]. c #F5D294",
"[. c #FCD292",
"{. c #FCD994",
"}. c #F3D69A",
"|. c #FCD29B",
" X c #F2D89F",
".X c #FEDA9A",
"XX c #ECD19C",
"oX c #DCCFA2",
"OX c #CEC0B7",
"+X c #D4C5BD",
"@X c #DAC6BB",
"#X c #D9C8BE",
"$X c #FFC3A1",
"%X c #F6CCA2",
"&X c #FACCA2",
"*X c #F9CDA9",
"=X c #EBD3AD",
"-X c #E5D7A7",
";X c #F4D3A3",
":X c #FCD3A2",
">X c #F3DBAE",
",X c #FCDEAC",
"<X c #F9D6A3",
"1X c #EADBB4",
"2X c #EFDBBA",
"3X c #EAD7B4",
"4X c #F5DCB4",
"5X c #F6DCB9",
"6X c #EBC8A2",
"7X c #FEE4BA",
"8X c #FFEDBF",
"9X c #F9E1B3",
"0X c #FDE0A4",
"qX c #DACDC4",
"wX c #E5D8C4",
"eX c #FDEDCE",
"rX c #FFF6C9",
"tX c #FFF8CB",
"yX c #FFF8C4",
"uX c #FFEEDE",
"iX c #FCECD4",
"pX c #FDF5D4",
"aX c #FDFAD7",
"sX c #FDF4E6",
"dX c #FFFCE2",
"fX c #FDF5EB",
"gX c #FEFBEC",
"hX c #F1F1E8",
"jX c #F6F6F7",
"kX c #FBF7F5",
"lX c #FDFCF4",
"zX c #F6FEFD",
"xX c #FEFEFD",
"cX c #F7F7F7",
/* pixels */
"                                                                                                                                ",
"                                                                                                                                ",
"                                                                                                                                ",
"                                                                                                                                ",
"                                                                                                                                ",
"                                                                                                                                ",
"                                                                                                                                ",
"                                                                                                                                ",
"                                            & O o O O @                                   7 : O f O :                           ",
"                                            @ Y l Y n ,                                   5 K Y * ] :                           ",
"                                      . . . q / / b y >                                   6 M u ~ ~ q . . .                     ",
"                                      - - , q.|./.T V >                                   6 V i ^._.d.< - -                     ",
"                                      , M c [.!.~.C s >                                   I N p L.Y./.H M ,                     ",
"                                      , x c [.!.P.+._ P                                   I +.O.u..X|.p M ,                     ",
"                                      : a A `.[.Y.~.Y.e.O % ,                       - < * *.Y.U.I.|.:XA x :                     ",
"                                      : N t `.I.!.{.[.%Xl P 2                       6 P n m.[.!.(.(./.S x :                     ",
"                                . . X { @.$.A.Z.D.W.T.(.c v 2                       6 v x t.W.T.D.K.Z.J x >                     ",
"                                # 7 1 6X].'.l.k.F.W.!.(.c v 2                       6 v x t.~.T.p.k.k.F x >                     ",
"                                : ! e |.E.).v.G.A.[.W./.x v k                       I v b t.~.`.l.z.x.Q c >                     ",
"                                : x u ].~.).v.z.l.(.W./.x v ( 5 5 5 5 5 5 5 5 5 5 5 ..Y g t.~.(.k.z.n.Q N +                     ",
"                                > c u ].E.$Xv.b.l.`.U.Y.N N M j M x n B M b M b x x 0 b N w.Q.(.l.v.c.Q V >                     ",
"                                > c u ].W.$Xv.j.k.(.!.Y.V x M x M M B B M M M b 0 x N c e t.Q.(.F.j.c.F G +                     ",
"                                : c u ].E.|.C.C.i.(.U.U.4.w.,.,.<.1.<.<.<.1.<.1.<.2.5.1.4.R.E.T.i.D.C.=.5.%.n P -               ",
"                                : c u ].W.`.).$X(.[.W.!.|.`.[.|.[.`.[.|.|.`.|.`.|.`.|.`.[.].W.T.T.).).).].*Xn P -               ",
"                                > x u (.!.!.W.!.!.!.W.!.!.!.!.!.W.!.W.!.!.!.!.!.!.!.W.!.W.!.!.T.W.!.!.!.W.(.t c ,               ",
"                                > x u (.!.!.W.!.!.!.!.!.!.!.!.!.W.!.W.!.!.!.!.!.!.!.W.!.W.!.!.!.W.!.!.!.W.(.t c ,               ",
"                                > x c (.!.!.W.!.!.!.!.!.W.!.!.].Q.!.!.!.[.(.!.!.!.!.W.].].[.T.!.!.].W.!.!.(.t b :               ",
"                                > x c (.!.!.W.!.!.!.!.!.U.{.{..X{.{.!.!.T.[.Q.!.!.T.{..X{.Y.!.!.!.].~.!.!.(.t c :               ",
"                                > x u (.!.!.!.!.!.!.W.W.a.[.V._ ) =.{.{.9XiXpX7X{.U.,.#.) u.R..X~.!.!.!.!.!.t x :               ",
"                                > x u (.!.!.!.!.!.!.W.W.W.(.V.G r O.{.].7XdXdX8XQ.T.@.s t w.{.Q.~.!.!.!.W.!.t x :               ",
"                                : x u (.!.!.W.!.!.!.!.[.>X=XN.G M { 1X1XeXsXfXiXoX-X%.b x m.-X-X].!.!.!.W.!.t x :               ",
"                                : x u (.!.!.W.!.!.!.W.(.8XeX7Xx x &.tXtXB.( } h.tXtX>.b 0 N.rXyX.X[.!.[.!.!.t x :               ",
"                                > x c (.W.!.!.[.].|.].>XxXlXwXn k X.gXlXg.P l s.lXlX8.W B OXlXgX4X<X}.].W.!.t b :               ",
"                                > x c (.W.!.!.[.].|.}.=XhXlXuXf k X.lXlXg.P l f.hXlX6.E f qXlXgX5X_.L.].W.!.t x :               ",
"                                : c u [.!.!.!.!.0XaXaXgXxXxXlXkXlXxXlXxXlXlXlXkXxXjXxXlXlXxXzXcXfXsXaX,XW.].t x :               ",
"                                : c u (.!.!.!.!.}.dXdXlXxXxXxXxXxXxXxXxXxXxXxXxXxXxXxXlXlXxXxXxXlXgXaX;XW.[.t x :               ",
"                                : x u (.!.!.!.!. XxXlXxXxXxXxXxXxXxXxXxXxXxXxXxXxXxXxXxXxXxXxXxXxXxXgX=XW.(.t c :               ",
"                                : x u (.!.!.!.!.;XkXlXxXxXxXxXxXxXxXxXxXxXxXxXxXxXxXxXxXxXxXxXxXxXxXgX=XW.(.t c :               ",
"                                = a t (.!.!.!.!. XxXlXxXxXxXxXxXxXxXxXxXxXxXxXxXxXxXxXxXxXxXxXxXxXxXlX3XQ.<Xy L $               ",
"                                = C t (.!.!.!.!. XxXlXxXxXxXxXxXxXxXxXxXxXxXxXxXxXxXxXxXxXxXxXxXzXxXfX2XQ.y.o f $               ",
"                          ; % o 3.|./.I.T.!.!.!. XlXlXxXxXxXxXxXxXxXxXxXxXxXxXxXxXxXxXxXxXxXxXxXzXlXgX] ^ *                     ",
"                          , P B XX/.`.!.!.!.!.!. XxXlXxXxXxXxXxXxXxXxXxXxXxXxXxXxXxXxXxXxXxXxXxXcXxXfXE 9 >                     ",
"                          $ ! Z .XT.{.!.!.!.!.T.}.pXaXdXxXxXxXxXxXxXxXxXxXxXxXxXxXxXxXxXxXxXxXxXgXpXpXV 0 >                     ",
"                          , b u |.].~.!.!.!.!.!.].3X1XwXxXxXxXxXxXxXxXxXxXxXxXxXxXxXxXxXxXxXxXxXwX3X3XV N >                     ",
"                          , x t |.!.W.!.!.!.!.!.{.[.|.;XxXxXxXxXxXxXxXxXxXxXxXxXxXxXxXxXxXxXxXxX2X.X.XH x :                     ",
"                          , x t |.!.W.!.!.!.!.!.!.].[.;XxXxXxXxXxXxXxXxXxXxXxXxXxXxXxXxXxXxXxXxX2XL.{.s x :                     ",
"                          , x t |.!.!.!.!.!.!.!.!.T.U.<XxXxXxXxXxXxXxXxXxXxXxXxXxXxXxXxXxXxXxXlX=X{.W.S x :                     ",
"                          , V s .X{.!.!.!.!.!.!.!.!.!.|.xXxXxXxXxXxXxXxXxXxXxXxXxXxXxXxXxXxXxXlX4X~.W.S x :                     ",
"                      . . h d p !.!.{.!.!.!.!.!.!.!.!.;XxXxXxXxXxXxXxXxXxXxXxXxXxXxXxXxXxXxXxXxX4X~.W.S x :                     ",
"                    - - 1 d.:X:X~.{.!.[.!.!.!.!.!.!.!.;XxXxXxXxXxXxXxXxXxXxXxXxXxXxXxXxXxXxXxXlX4X~.W.S x :                     ",
"                    : v N :X!.!.W.U.!.!.!.!.!.!.!.!.!.;XxXxXxXxXxXxXlXlXlXxXxXxXxXxXxXlXlXxXxXlX4X[.(.A M >                     ",
"                    : B a :X{.!.W.!.!.!.!.!.!.!.!.!.!.;XxXxXxXxXxXxXgXlXlXxXxXxXxXxXlXfXgXxXxXlX4X[.T.A V >                     ",
"        ; > * > = O 0 x r |.!.W.W.!.!.!.!.!.!.!.!.!.!.<XxXxXxXxXlX+Xf x 8.xXxXxXxXxX8.h W qXxXlX>X[.(.S V g O O O O * @         ",
"        : k l W h Y j G r |.!.W.W.!.!.!.!.!.!.!.!.!.!.<XxXxXxXxXlX+Xh j ;.cXxXxXxXcX6.Y W qXxXlX>X[.(.S c v k f P P n :         ",
"        < g e t r 9 d r p [.!.!.!.!.!.!.!.!.!.!.!.!.!.|.fXfXlXxXxX#XB x -.cXzXxXlXkX6.x v +XxXlX2X*X%XD e p p t s c N >         ",
"        : b H %X<X<X|.:X/.[.W.W.!.!.!.!.!.!.!.!.!.!.!./.( ( I xXlX#Xj c 6.xXzXxXlXxX6.b b J.xXhXo.C D V.:X:X:X:X*XN V >         ",
"        , b u `.Q.!.Q.T.{.!.W.!.!.!.!.W.!.!.!.!.!.!.!.(.G ! E fXlXH.l x :.xXzXxXlXxX6.b E @XfXgX{ u ~ /.W.U.W.(.`.i M >         ",
"        , T A |.!.!.!.T.!.!.W.!.!.!.!.W.!.!.!.!.!.!.!.Y.G N  .fXsXH.j x 6.xXzXxXxXxX6.b B @XfXfX{ e D ,XW.!.!.(./.u M $         ",
"        : B u `.[.[.!.!.!.T.!.[.!.[.!.!.!.[.!.[.!.(.!.T.|.:XM.x W g T V :.xXzXxXxXxX:.b j g m x S.&XP..X!.T.U.(.|.t c >         ",
"        < j t `.[.[.!.[.!.!.!.[.!.[.!.!.!.[.!.[.!.[.!.[.[.:XM.V B L M b :.lXxXxXlXkX:.T M v M M S.:X[.Y.!.!.!.(.|.e y %         ",
"        : T 8 *X&X&X&X&X_.%X_.%X%X%X_.%X_.%X_.%X_.%X_.%X^.%XM.x b b M B 0.fXuXgXuXsX0.g x b M x m.5X^._.%X_._.%X^.N q >         ",
"        : g x u t Z t t p p p p p p p p p p p p p p p p d s a b M B B M n U K I K U n v M b M x N C r r p p p p r q x ,         ",
"        @ k P l B L Y L B b B b B b B b B v B b B b B b w Y R L Y Y B B B R L L z R l T b L v v j Y B v L L B b W T l ,         ",
"        I (  .' ' ' ' | ` ` ` ` ` ` ` ` ` ` ` ` ` ` ` [ ` ' ' | ' ' ` ` ` ' | | ' ' ` ` ` ' ` ` ` ' ` ' ' ' ` ` ` ` ` 2         "
};
