/* XPM */
static char *_3feb9562d234058d80677d03203d8c2a4X0FlKb7iDZv23z[] = {
/* columns rows colors chars-per-pixel */
"64 64 234 2 ",
"   c #000000",
".  c #090000",
"X  c #180B05",
"o  c #171312",
"O  c #371C01",
"+  c #3A1E0B",
"@  c #33180F",
"#  c #241F1B",
"$  c #2D1E1B",
"%  c #2B1C15",
"&  c #331E12",
"*  c #3C1E13",
"=  c #2D190E",
"-  c #3C2206",
";  c #36220E",
":  c #3B210E",
">  c #2C241D",
",  c #272219",
"<  c #352314",
"1  c #392215",
"2  c #34221A",
"3  c #3A281A",
"4  c #2D2620",
"5  c #262523",
"6  c #392E2C",
"7  c #392A24",
"8  c #3E352C",
"9  c #3B3431",
"0  c #3B3631",
"q  c #431D08",
"w  c #4C2401",
"e  c #4D290D",
"r  c #4E2D04",
"t  c #542D04",
"y  c #5A2E03",
"u  c #542C0C",
"i  c #5A2C0C",
"p  c #532601",
"a  c #5B3201",
"s  c #56300E",
"d  c #5D340A",
"f  c #563102",
"g  c #442412",
"h  c #4D2C15",
"j  c #442C1B",
"k  c #4D2D1C",
"l  c #442718",
"z  c #552E14",
"x  c #592D13",
"c  c #532D1B",
"v  c #5A2D1A",
"b  c #512613",
"n  c #4C311D",
"m  c #4B3219",
"M  c #553015",
"N  c #5A3112",
"B  c #54321C",
"V  c #5B341C",
"C  c #5C3917",
"Z  c #602D02",
"A  c #653806",
"S  c #65360C",
"D  c #69360C",
"F  c #633809",
"G  c #663808",
"H  c #643512",
"J  c #62341C",
"K  c #653919",
"L  c #4E2E21",
"P  c #542F20",
"I  c #4C3322",
"U  c #44372D",
"Y  c #4C3429",
"T  c #463628",
"R  c #543221",
"E  c #5C3522",
"W  c #5D3925",
"Q  c #513629",
"!  c #573A29",
"~  c #593F32",
"^  c #633B24",
"/  c #7D3831",
"(  c #764D1D",
")  c #7A4B19",
"_  c #6A441F",
"`  c #594338",
"'  c #6D4320",
"]  c #784627",
"[  c #765538",
"{  c #735132",
"}  c #5B4D47",
"|  c #585147",
" . c #63554C",
".. c #625243",
"X. c #7D5D50",
"o. c #7A5E49",
"O. c #72685E",
"+. c #7A6A63",
"@. c #7C716B",
"#. c #813B33",
"$. c #874139",
"%. c #A1743B",
"&. c #916C35",
"*. c #98754A",
"=. c #83675A",
"-. c #81695D",
";. c #886349",
":. c #A37E52",
">. c #8A7061",
",. c #947F6E",
"<. c #847A75",
"1. c #876C61",
"2. c #B08149",
"3. c #BC935D",
"4. c #BD9557",
"5. c #8F806D",
"6. c #9A8777",
"7. c #9A8268",
"8. c #B69468",
"9. c #B69A78",
"0. c #AB8A6F",
"q. c #C1945D",
"w. c #C39964",
"e. c #C49B72",
"r. c #CEA06C",
"t. c #CAA178",
"y. c #F9D57F",
"u. c #EDC57D",
"i. c #908E81",
"p. c #AD988D",
"a. c #B69A86",
"s. c #A69D94",
"d. c #B49B96",
"f. c #BBA083",
"g. c #BBA89A",
"h. c #B7ADA7",
"j. c #B9B3B3",
"k. c #EE898F",
"l. c #F88E95",
"z. c #F58D98",
"x. c #EF9793",
"c. c #FA9294",
"v. c #F6959A",
"b. c #E49E84",
"n. c #DFB084",
"m. c #C4AA98",
"M. c #C2A78A",
"N. c #E8A587",
"B. c #FBA68B",
"V. c #FEA88F",
"C. c #FFBC9C",
"Z. c #EBB686",
"A. c #F993A0",
"S. c #C4AEA1",
"D. c #D0BDAF",
"F. c #C1BEB7",
"G. c #FFBFA7",
"H. c #F5CC85",
"J. c #FACE85",
"K. c #F6CC8B",
"L. c #FCCE8B",
"P. c #F2C582",
"I. c #FDD385",
"U. c #F6D38D",
"Y. c #FDD28C",
"T. c #FED98D",
"R. c #F6D284",
"E. c #EACB97",
"W. c #F3C594",
"Q. c #F5CC93",
"!. c #FDCE93",
"~. c #F6CE9C",
"^. c #FBCD9B",
"/. c #FDC697",
"(. c #EDD69A",
"). c #E9D598",
"_. c #F5D395",
"`. c #FDD393",
"'. c #FDD994",
"]. c #F4D29D",
"[. c #FDD49B",
"{. c #F6D99D",
"}. c #FFD99A",
"|. c #FFC3A3",
" X c #FACDA3",
".X c #FFC2AC",
"XX c #FCCDAB",
"oX c #F3CAA3",
"OX c #EED5A5",
"+X c #EED9A4",
"@X c #EAD7AC",
"#X c #F4D5A1",
"$X c #FED4A1",
"%X c #F3DCA2",
"&X c #FDD9A3",
"*X c #F4D4AB",
"=X c #FCDCAB",
"-X c #F8D8AB",
";X c #E7DABB",
":X c #E8D9BC",
">X c #E5D8B5",
",X c #F5DDB2",
"<X c #F8DEB5",
"1X c #F7DEBC",
"2X c #F8DEBB",
"3X c #FDE1A4",
"4X c #EDE0BE",
"5X c #FFE5B3",
"6X c #F4E1BC",
"7X c #FBE4BB",
"8X c #CCC7C4",
"9X c #E7D8C4",
"0X c #EAD8CE",
"qX c #ECE4CA",
"wX c #F7E8C7",
"eX c #FFF4CD",
"rX c #EEE6D7",
"tX c #FDECDB",
"yX c #F5E8D6",
"uX c #FFFAD6",
"iX c #FFF9DC",
"pX c #F6F0D8",
"aX c #ECECEE",
"sX c #FDEDE2",
"dX c #FEF3E4",
"fX c #FFFBE4",
"gX c #FEF4EB",
"hX c #FEFAEC",
"jX c #F3F1EA",
"kX c #FCF5F3",
"lX c #FEFCF5",
"zX c #FDF7FA",
"xX c #F6FFFE",
"cX c #FEFEFD",
/* pixels */
"                                                                                                                                ",
"                                                                                                                                ",
"                                      % : * 1 1 ,                                   , 1 1 1 < $                                 ",
"                                      2 k L Q Y >                                   9 Y I Y n 2                                 ",
"                                      O w H J c 2                                   8 c ^ i d O .                               ",
"                                , > 7 a. XoXx W 2                                   0 c M t.~.M.8 > #                           ",
"                                < V K !.J.!.y u <                                   U N S r.'.K.( B &                           ",
"                                < z i !.J.!.y x &                                   U N y r.U.`.( z &                           ",
"                                < x i !.Y.`.K.W.8.+ 1 2                       o & + *.&XK.`.T.!.( z <                           ",
"                                < x i !.T.K.K.^.,Xg j 7                       9 Y g 8.&XK.L.I.`.( z <                           ",
"                              . - y Z G..X|.`.U._.J ^ 7                       9 l J 3.J.`. XC..X] c &                           ",
"                          5 > > 9. XW.N.b.N.L.U._.x B 2                       9 Q x q.Y.!.Z.N.N.] v <                           ",
"                          2 m b !.K./.v.l.x.!.Y.U.x B 3                       9 R N 3.Y.Y.B.c.v./ E <                           ",
"                          2 m E `.!./.k.l.x.K.J.U.x B 3                       6 R x 3.Y.L.B.c.v./ v <                           ",
"                          @ C N L.`./.z.z.x.!.L.T.v M h : + ; : : : : + 1 + + g V N 8.`.!.B.c.A.#.v <                           ",
"                          1 s x Y.`./.z.z.v.!.Y.T.J M h I I I I I I I R I I n B z H 3.H.`.V.l.z.$.v <                           ",
"                          1 z v `.T.H.N.N.N.L.Y.u.H f a a y a a a a a a a y a y d A 4.P.Y.Z.N.N.) w - .                         ",
"                          1 z v `.T.T.G.|.|.T.Y.T.XX&X&X^.^.~.^.^.^.^. X^.^.^. X$X$X`.J.T./.|.|.^.-Xf.2 > >                     ",
"                          1 z x `.R.R.!.L.!.T.T.I.`.'.I.Y.Y.Y.Y.Y.Y.U.`.U.Y.`.`.Y.K.U.Y.Y.L.L.J.R.`.^.d h =                     ",
"                          1 z x }.R.I.^.Y.!.U.Y.I.`.U.I.Y.Y.L.Y.Y.Y.U.`.U.Y.Y.`.U.U.U.Y.U.Y.Y.I.R.U.[.H M <                     ",
"                          < z x [.R.I.`.Y.Y.U.U.U.`.U.Y.I.Y.`.`.U.Y.U.!.I.U.U.Y.I.Y.Y.Y.`.`.Y.Y.U.Y.`.D M 1                     ",
"                          < z x [.R.I.`.Y.Y.U.U.Y.`.U.Y.I.Y.`.`.U.Y.U.!.I.U.U.Y.J.L.Y.`.`.`.Y.Y.U.U.`.G M 1                     ",
"                          < z i [.y.I.`.Y.Y.I.I.I.Y.Y.`. X X^.!.`.].>X:X#X`.U.`.XXXX[.Y.Y.L.Y.Y.Y.L.`.F z <                     ",
"                          < z i [.y.I.`.Y.Y.I.I.I.Y.Y.!.d p ) !.'.5XeXiX5X}.R.2.H H w.Y.Y.Y.Y.L.Y.L.`.F z <                     ",
"                          < z i [.R.I.!.T.Y.Y.Y.`.].#X*XV z ' OX+X6XfXgXwX-X{.*.M V 8.#X]._.T.I.I.L.!.S z <                     ",
"                          < z i [.R.I.!.Y.Y.Y.Y.U.&X#X*Xz x _ -XE.6XtXsXwX*X{.:.u V 9.=X=X_.U.I.I.Y.`.S z <                     ",
"                          < z i $XR.I.!.L.I.`.[.%XfXhXhXz B ..hXhX9Xm R 6.kXgXd.P P S.kXfX7X_.!.I.I.`.H x <                     ",
"                          < z i [.R.I.!.J.I.`.[.#XfXhXgXz h ..lXfXD.n k 5.zXlXp.R E m.kXfX7X_.`.J.I.`.S x <                     ",
"                          < z i $XR.I.`.`.U.4X9XqXzXcXzX .} <.cXzX8X|  .i.cXxXj. . .F.cXcXpXqX6X#XU.U.S z <                     ",
"                          < N i $XR.I.`.`.'.uXiXfXcXcXcXhXzXcXcXcXcXlXhXhXcXxXcXhXhXlXzXzXhXfXuX3XU.U.H z <                     ",
"                          < z i $XR.I.!.}.(.lXcXlXzXcXcXcXzXcXcXcXzXcXcXlXzXxXcXcXkXcXcXcXcXcXzX,XT.Y.S z <                     ",
"                          < C i [.T.T.!.`.(.lXcXlXcXcXcXcXcXcXcXcXcXcXcXlXcXcXcXcXcXcXcXcXcXcXcX,XH.T.D u &                     ",
"                          < u i W.I.I.!.Y.(.zXcXlXcXcXcXcXcXcXcXcXcXcXcXcXcXcXcXcXcXcXcXcXcXcXzX*X'.`.H e &                     ",
"                          < N i ^.I.I.`.T.(.zXcXlXcXcXcXcXcXcXcXcXcXcXcXcXcXcXcXcXcXcXcXcXcXcXzX<XU.}.i u &                     ",
"                      X 3 [ &.%.`.Y.T.L.I.OXzXcXlXcXcXcXcXcXcXcXcXcXcXcXcXcXcXcXcXcXcXcXcXcXxXcXM.e.8.B e + . X X               ",
"                    # 7 T *X[.`.Y.Y.I.Y.T.*XcXcXlXcXcXcXcXcXcXzXcXcXcXcXcXcXcXcXcXcXcXcXcXcXxXzX[ H u e M j > U >               ",
"                    < z u [.'.I.Y.Y.Y.Y.R.#XfXuXfXcXcXcXhXzXlXzXcXcXcXcXcXcXcXcXcXcXcXcXlXlXhXiX;.V B j j I E b <               ",
"                    < z u [.'.I.Y.Y.Y.Y.R.&XyXwXpXcXcXcXs.s.h.cXcXcXcXcXcXcXcXcXcXcXcXcXlXjXrXyX[ V h a.p.a.c W <               ",
"                    & z u [.T.I.I.Y.Y.Y.R.'.^.U.,XzXcXzXI Q ` zXcXcXcXcXcXcXcXcXcXcXcXcXlXqXE.^.( u ! dXcXhXj c 2               ",
"                    < z u [.T.I.I.Y.Y.Y.R.Y.[.`.@XzXlXzX! ~ } kXlXcXxXcXcXcXcXcXcXcXcXcXlXqX#X[.( z m gXlXkXn R 2               ",
"                    < z s [.'.I.I.Y.Y.Y.R.I.L.I.OXzXlXcXs.g.g.6.6.h.cXcXcXcXcXcXcXcXcXcXcX2X'.Y.( z k sXlXlXn R <               ",
"                    < z u [.'.I.I.Y.L.Y.R.Y.L.I.+XzXlXcXlXgX0XQ Y +.cXzXcXcXcXcXcXcXcXcXcX2X'.Y.( M k sXcXlXn R <               ",
"                    - f a `.'.Y.Y.Y.Y.Y.Y.L.I.Y.+XkXhXkXaXzXyXh W -.cXcXcXcXcXcXcXcXcXcXcX<X'.Y.] z c tXhXhX6 4 #               ",
"              5 9 9 7.e.w.!.J.'.Y.Y.Y.Y.Y.L.I.Y.%X<.O.@.zXcX9XR h -.cXcXcXcXcXcXcXcXcXcXcX<X'.Y.{ ^ q >.<.O.X                   ",
"              2 P ^ ].`.L.`.Y.J.Y.Y.I.Y.U.!.I.Y._.l B ` zXkXyXR h =.zXcXcXcXcXcXcXcXcXcXcX2X'.Y.A x M M l 2                     ",
"              $ k u [.`.L.`.H.`.Y.Y.I.Y.U.!.I.Y.3X! k Y jXkXtXh h =.lXcXcXcXcXcXcXcXcXcXcX2X'.Y.D K V q R 2                     ",
"              2 E i }.Y.J.J.T.L.Y.Y.Y.Y.U.`.I.U.%XrXrX9Xo.X.{ E h -.lXcXcXcXcXcXcXcXcXcXlX6X'.Y.P.Z.E.S N 1                     ",
"              2 z i `.I.Y.Y.Y.Y.Y.Y.Y.Y.U.`.I.U.).kXkXgXn L k z B 1.kXcXcXcXcXcXcXcXcXcXlX6X'.Y.Y.^.#XH x 1                     ",
"              2 c i `.I.Y.Y.Y.Y.Y.Y.Y.Y.U.Y.I.`.).cXxXzXI Y T Y I +.zXcXcXcXcXcXcXcXcXcXlX2X`.I.I.Y.`.S z 1                     ",
"              2 c i `.I.Y.Y.Y.Y.Y.Y.Y.Y.I.Y.I.U.).zXxXzXtXsXtXsXtXsXkXcXcXcXcXcXcXcXcXcXlX2X`.I.I.Y.`.S z 1                     ",
"              2 c i `.Y.I.Y.Y.Y.Y.T.Y.Y.Y.!.I.`.(.fXhXzXcXcXcXcXkXzXcXcXcXcXcXcXcXcXcXcXlX6XT.I.I.!.`.F M 2                     ",
"              2 c i `.T.Y.Y.Y.Y.Y.Y.Y.Y.Y.!.I.`.%XdXhXzXcXcXcXcXcXcXcXcXcXcXcXcXcXcXcXcXlX6XT.I.I.!.`.F M <                     ",
"              2 z i !.Y.Y.Y.Y.Y.Y.Y.Y.Y.I.Y.I.Y.H.{.(.@XcXcXcXcXcXcXcXcXcXcXcXcXcXcXcXcXcX1X'.I.Y.!.`.A M 1                     ",
"              2 z i !.Y.Y.Y.Y.Y.Y.Y.Y.Y.I.Y.I.Y.'._.(.@XcXcXcXcXcXcXcXcXcXcXcXcXcXcXcXcXzX2X'.I.Y.!.`.A M 1                     ",
"              2 c i `.Y.Y.Y.Y.Y.U.Y.Y.Y.Y.Y.Y.L.Y.`.T.Q.iXiXiXiXiXiXiXiXiXiXiXiXiXiXiXiXuX=X'.I.Y.!.`.G z 1                     ",
"              2 W u }.J.Y.Y.'.'.'.`.J.J.Y.Y.Y.L.J.Y.Y.`.;X;X;X:X;X;X;X;X;X:X;X:X;X:X;X:X>X#XT.J.I.!.`.G z 1                     ",
"              $ l B *X&X!.`.Y.Y.T.Y.Y.Q.`.`.`.`.`.[.`.[.`.}.`.}.`.`.`.}.`.}.`.}.`.[.`.[.E.Q.Y.T.R.Y.`.D z <                     ",
"              $ 1 + t.Q.L.`.L.J.H.Y.Y.}.`.`.`.`.`.[.}.[.`.}.`.}.`.`.`.[.`.[.`.}.`.[.`.[.3X}.Y.J.R.U.`.D z <                     ",
"                    3 t d W.H.`.Y.!.Q.p z x i i s z z x s N N N N N N N N N N N s x N N C n.`.`.R.U.`.G z <                     ",
"                    ; s w ^.H.`.Y.}.[.y x x i i s x N x s x s x N i s x s x s x N x N x r t.!.`.I.K.Q.G N <                     ",
"                    < z u oX~.$XW. X9.> 4 4 4 4 4 4 4 4 4 4 4 4 4 4 4 4 4 4 4 4 4 4 > 4 > ,.-X$X$X~.=X' M 1                     ",
"                    < z w i a y a p - .                                                   I t Z y F d p M <                     ",
"                    < h h h V M h n <                                                     9 ! b B B V R B 2                     ",
"                    2 l B c B z h n 2                                                     9 k b z M M c B 2                     "
};
