/* XPM */
static char *f157ca317ca94003dc25b3224198b3b6yMs6SHUn2Ag5EeFC[] = {
/* columns rows colors chars-per-pixel */
"64 64 256 2 ",
"   c #391812",
".  c #2C1A2B",
"X  c #34192A",
"o  c #2A1C34",
"O  c #311A36",
"+  c #2C262B",
"@  c #372928",
"#  c #3B312A",
"$  c #2D2435",
"%  c #3B2C34",
"&  c #3C2C3B",
"*  c #352737",
"=  c #3D3438",
"-  c #2F201D",
";  c #441818",
":  c #4E1512",
">  c #592A0D",
",  c #5A2C18",
"<  c #5A3416",
"1  c #5A2F0C",
"2  c #7C2C0A",
"3  c #7A330A",
"4  c #7C2B13",
"5  c #7C2D1B",
"6  c #782915",
"7  c #663416",
"8  c #783416",
"9  c #652E12",
"0  c #4D1D2C",
"q  c #492829",
"w  c #43342C",
"e  c #4A332D",
"r  c #442C3A",
"t  c #443434",
"y  c #43353B",
"u  c #4A3737",
"i  c #543D3C",
"p  c #5B3C3B",
"a  c #5A3738",
"s  c #56302C",
"d  c #662925",
"f  c #68342A",
"g  c #763625",
"h  c #652E36",
"j  c #643433",
"k  c #6B3434",
"l  c #633935",
"z  c #64343C",
"x  c #683A38",
"c  c #733635",
"v  c #782E29",
"b  c #671F10",
"n  c #4C423B",
"m  c #54423C",
"M  c #58433A",
"N  c #794738",
"B  c #6E433D",
"V  c #754618",
"C  c #3B2D42",
"Z  c #3A3444",
"A  c #482D46",
"S  c #4A3B4C",
"D  c #463745",
"F  c #553D44",
"G  c #483952",
"H  c #663742",
"J  c #4E4246",
"K  c #534243",
"L  c #584346",
"P  c #544656",
"I  c #555252",
"U  c #744844",
"Y  c #6B554C",
"T  c #7A5B55",
"R  c #6E514F",
"E  c #7D655E",
"W  c #79665A",
"Q  c #746252",
"!  c #5B596A",
"~  c #655969",
"^  c #6D586D",
"/  c #7E6661",
"(  c #7E6962",
")  c #7A6868",
"_  c #6E6571",
"`  c #5B616F",
"'  c #852B0B",
"]  c #852A07",
"[  c #85320B",
"{  c #973A0A",
"}  c #832B14",
"|  c #832C1A",
" . c #892A14",
".. c #83331B",
"X. c #893818",
"o. c #933A18",
"O. c #912B0E",
"+. c #A73E10",
"@. c #893923",
"#. c #933822",
"$. c #863427",
"%. c #9A410A",
"&. c #8B441C",
"*. c #96461A",
"=. c #935315",
"-. c #A1400D",
";. c #AB451C",
":. c #AC4B1C",
">. c #A84717",
",. c #B2461B",
"<. c #B34C1B",
"1. c #B44B16",
"2. c #AC531D",
"3. c #A9591A",
"4. c #B45216",
"5. c #B4541C",
"6. c #BB541C",
"7. c #B45B1C",
"8. c #BB5B1D",
"9. c #B55D16",
"0. c #B5460B",
"q. c #BC641D",
"w. c #BD6A1E",
"e. c #B4641D",
"r. c #B66C1E",
"t. c #8B4727",
"y. c #994925",
"u. c #955224",
"i. c #884C38",
"p. c #865337",
"a. c #985737",
"s. c #954D34",
"d. c #AC4B22",
"f. c #A74926",
"g. c #B24C23",
"h. c #B74C25",
"j. c #AD5423",
"k. c #A95628",
"l. c #B45424",
"z. c #BA5423",
"x. c #B45A23",
"c. c #BB5C23",
"v. c #B3542A",
"b. c #BA5D2A",
"n. c #B6582B",
"m. c #A55736",
"M. c #B85932",
"N. c #A14C37",
"B. c #B56323",
"V. c #BC6424",
"C. c #BB6B24",
"Z. c #B5632A",
"A. c #BC642B",
"S. c #BC6B2B",
"D. c #B56926",
"F. c #BD722C",
"G. c #BD7324",
"H. c #A76439",
"J. c #BB6432",
"K. c #BE6D33",
"L. c #B76637",
"P. c #BA7432",
"I. c #AD6428",
"U. c #C1671E",
"Y. c #C1701E",
"T. c #C35C23",
"R. c #C15A29",
"E. c #C26323",
"W. c #C36A24",
"Q. c #C2642B",
"!. c #C26B2B",
"~. c #C96B2A",
"^. c #C37425",
"/. c #C3742C",
"(. c #C57B2C",
"). c #CB7C2D",
"_. c #C9752B",
"`. c #D07B2D",
"'. c #C66A35",
"]. c #C57534",
"[. c #CB7534",
"{. c #CB7B34",
"}. c #C77B37",
"|. c #D27A37",
" X c #C05E1D",
".X c #875347",
"XX c #8C544B",
"oX c #A35943",
"OX c #B15B4E",
"+X c #81655E",
"@X c #886A54",
"#X c #986B54",
"$X c #9D7457",
"%X c #926C50",
"&X c #AA6747",
"*X c #B26B45",
"=X c #B47449",
"-X c #A47557",
";X c #AD7355",
":X c #816662",
">X c #816B64",
",X c #84636A",
"<X c #8E7C6D",
"1X c #8A766A",
"2X c #917D6E",
"3X c #937C64",
"4X c #8D7C72",
"5X c #897F7C",
"6X c #927E71",
"7X c #967B75",
"8X c #A97B64",
"9X c #D07845",
"0X c #C7812C",
"qX c #CA8335",
"wX c #D48639",
"eX c #B1845D",
"rX c #93816E",
"tX c #8E8175",
"yX c #938173",
"uX c #9C887B",
"iX c #928671",
"pX c #AA8466",
"aX c #B88667",
"sX c #A18B7E",
"dX c #B28E74",
"fX c #D98645",
"gX c #DC9745",
"hX c #D68C4D",
"jX c #E58B4B",
"kX c #E6954D",
"lX c #C08A68",
"zX c #A97E85",
"xX c #9F8984",
"cX c #948A95",
"vX c #A28C83",
"bX c #A48685",
"nX c #AC958B",
"mX c #AD9E8C",
"MX c #A89886",
"NX c #B09E8E",
"BX c #B09987",
"VX c #AE9D92",
"CX c #B19C91",
"ZX c #B39F98",
"AX c #AEA08C",
"SX c #A7A189",
"DX c #B1A28E",
"FX c #B2A191",
"GX c #BAA89B",
"HX c #ADA291",
"JX c #A69AA4",
"KX c #C4B4A4",
"LX c #C9B7A9",
"PX c #CAB6A9",
"IX c #C5AC9C",
"UX c #D6C4B6",
/* pixels */
"1X1X1X1X1XY E E +X/ ) ,X+X:X/ +XvXt y * % X ; } q O.6 ..@...} $...0  .6 }  .5 6 ' d 4 } ; ; * * @ @ T rX6X7XtX6X2X7X6X6XyXyX2X7X",
"nXnXnXnXCXnXY E :X/ ) ,X+XE / +Xe t y * . X l 4 q O...| ..| ..$.5 0  .6 }  .6 6 ' d 4 } h q . o @ u u 3X2X7X4X7X2X7X2X6X6XsXvXsX",
"yX4X6XyXVXnXVXvX@X:X/ W W ) ) t = u . : } '  .| 4 5 4 #.} ' ..} 4 q 2 5  .} | 4 } d 4 } 6 ' }   O r D u 5X2XyX3X2X7X6X1XMXuXsXvX",
"6X4XyX6X<XuXnXCXBXR W W E ) t t y - X k } '  .} 4 5 X. .X.] @.} ..q } 6 } } | 4 4 d 4 } 5 ' 4 j O X = t t 1X<X3X7XW uXvXvXMXE E ",
"6XyX<X<XyX<XyX<XuXVXvXY I # = D o : ' ] h H ]  .{ :.v.{ g l $.O.O., ] |  .x j  .| 5 2 4 5 z c } 6 : o y u # _ ) yXuX>XW E / / / ",
"<X6X6XyX<X6X<X<X<X7XCXnX@ @ y . o k f.f.h zXf.y.,.z.g.v.8 7Xs.f.v.k ' | ' k x ' | 5 [ } 5 h .X} 5 k o X u # + xXsXE E :XE :X>X/ ",
"<XyX<X<XyXyX<XyXtX4XZXbX# $ + b z.;.,.f., d 0.;.d.f.;.z.@.7 y.*.z.h f.:.O.: : O.5 5 | ' ' ; 0 X.} } X.: O & @ R E >XE :XE :X/ :X",
"<X<XyX6X<X6X6X<XtX6XVXF m = & oXh.d.;.f.XXi.0.;.d.M.n.l.oXXXm.k.h.z d.:.;..XXXd.5 6 5  .' l z } } } X.x o * t y 1XW >X/ :X:X:X/ ",
"2X2X<X6XyX6X<X6X6XrX1XK K r o.5.6.y.:.>.,.;.;.>.>.y.v.1.n.l.v.5.<.z ,.>.d.+.,.:.:.*.] ] | $.} } 4 | o...#.O t e u / / / E :X/ / ",
"6X6XyXyX<X<XyX<X6X2XM F y % N.x.6.*.:.;.,.:.,.d.-.y.l.8.;.z.z.z.z.H ,.:.>.;.,.:.:.f.f.f.5 | | ..5 4 X.X.X.O # e e ( >X/ :X:X/ / ",
"6X2X2X<X6XyX6XyX4XY i p & h.l.l.R.$.:.d.,.<.:.<.f.f l.l.5.c.v.x.6.l f.<.<.;.;.:.;.:.;.,.f.+.' 6 ..X.@.X.X. .o t u t / / E >XE / ",
"6XyX<X2X6X2X6X<X4Xi M p * h.n.l.6.g ;.:.,.,.:.,.f.f z.l.5.c.l.x.6.a f.<.>.,.;.;.:.:.:.,.f.:.f.5 6 2 @.X.o.#.o = t u / >X>XE E ( ",
"Q yX<XrX<XW W W y e Z & ;.v.z.M.h.j d.;.:.:.f.;.0.i y.^ +X.X^ ^ T T .X^ ~ T XX~ >.<.,.d.d.+.d.:.O.4 $.@.X.X.X.o % @ @ Y Y Y Q W ",
"UXLXKXLXKXKXKXKX@ @ $ & b.d.c.v.h.x g.;.:.:.f.;.0.p f.G a k u % s a f i Z l x S >.,.<.:.g.1.f.:.f.| #.@.X.X.X.$ % @ @ PXLXPXPXUX",
"KXmXDXmXmXDXmXKXi n i C 4.z.T.8.d.c <.>.<.:.:.>.d.z z.S ] ' 9 & [ ] 2 , y 8 2 S l.y.<.d.:.>.>.g.:.N.{ X.o.X.@.X y t w UXCXCXLXLX",
"DXmXmXmXAXmXmXAXM n m * 8.R.<.6.l.N <.d.<.g.:.<.d.z z.D *.' t.& *.o.[ f % 8 [ D :.y.<.d.:.:.:.;.:.#.n.X.X.X.X.X y u t nXCXNXmXFX",
"mXmXmXAXmXmXmXmXm J m C 8.b.R _ 6.].2.:.:.~ T v.h.j b.D %.3 %.y %.{ 3 * # ] 2 S <.k k.1.d ` @.>.:.l R.b P l o.. t t w mXFXmXmXVX",
"mXmXmXAXmXmXmXmXL J m C b.b.i S T.}.2.d.:.D M d.h.l x.D %.3 -.y %.%.3 Z # ] 2 S <.c j.1.c Z a.;.<.l R.g $ B #.. t u w DXmXFXmXmX",
"mXmXAXAXmXmXmXmXuXF p r b.8.8.g.b.9Xg.<.<.g.<.<.<.o.x.G +.4 %.Z %.{ 8 % & 6 4 S 2.H g.l.<.2.g.;.4.*.c.X.o.&.o.. t t w DXmXMXDXmX",
"mXmXAXAXmXmXmXmXLXL i r x.T.8.b.x.fXg.<.<.;.<.,.5.f.b.G >.2 %.Z %.-.4 & & 8 } S :.H g.:.<.2.g.d.4.k.R.&.o.X.o.. t t w AXmXFXDXMX",
"mXmXmXmXmXmXmXAXFXM K & a.b.A.2.A.T.<.:.z.<.l.d.5.:.9.u -.' *.D %.*.[ @ g 2 ' u 6.z 1.g.z.4.<.>.;.c.T.@.X.#.X.. t t Q DXmXmXmXmX",
"mXmXAXAXmXmXmXmXBXi K & b b.b.x.x.E.<.,.z.<.v.g.z.:.q.i -.' *.D %.{ 2 t f 2 ' i <.z 1.l.g.4.<.h.d.c.T.X.#.o.@.$ t t VXAXFXmXAXFX",
"mXmXmXmXmXmXmXmXAXM a t Z x.c.x.Z.c.2.j.d.x.4.l.k.g.b.S N f U D N i.k Z N l d S 4.x 3.:.l.j.j.<.>.R.A.t.@.#.s . t t HXmXmXFXBXmX",
"mXmXmXmXmXmXmXmXAXi l F Z b.c.b.Z.A.2.d.l.2.4.l.k.g.l.D p..XT ~ .Xp..X` .XT .XS 4.l 3.:.g.k.n.h.[.R.V.@.t.#.  $ t t mXAXmXmXAXmX",
"AXAXmXmXmXAXmXAXSXF F M C b.B.J.E.A.k.z.4.2.j.5.h.4.E.*.*.y.*.*.*.q { { { X.X.o.5.x l.:.2.j.2.6.{.Q.V.&.t.t.$ y t t mXmXFXmXBXmX",
"mXmXDXAXmXDXmXmXSXF L M C Q.A.Z.T.J.X.z.1.j.j.4.h.Q.8.k.J.L.L.m.L.l v.l.k.f.k.k.5.j l.l.7.j.j.1.|.A.V.o.t.#.o y t t mXmXmXmXDXmX",
"mXDXAXmXAXmXMXFX1Xm F u r x.E.J.V.A.c l.l.<.k.z.l.qXR.l.R.R.V.T.!.l 4.j.k.6.2.x.j.f.l.5.0.n.j.z.;XA.T.&.&.o.X t t t 4XmXmXmXNXmX",
"DXMXMXDXDXmXmXmXtXw u e r x.E.J.V.Q.k l.j.z.k.5.x.0XQ.'.Q.Q.7.~.V.j 8.v.x.6.2.2.x.f.5.l.0.v.j.l.t.Q.T.*.X.o.X @ @ @ yXmXCXMXmXVX",
"<X<X<X<X<X<XyXmXLX@ % + & E.{ R Q V.j n.4.d _ v.x.).S.Q.z.U Q Q.Q.a 4.T., _ j.<.g.2.4.x.U ) x.5.k Q.s.S f t.. @ @ @ GXmX<X6X1X4X",
"KXKXLXKXKXKXKXKXLXn F J * E.c.i @XQ.x x.4.N D M.x.).B.Q.z.U u '.8.a 8.6.N A n.5.g.x.5.c.U y x.7.k Q.oX+ U t.. t t t GXDXMXKXGXGX",
"MXmXmXmXmXFXmXFXPXM m K C !.J.l.E.J.j x.x.7.9.5.7.9Xx.S.V.J.W.A.c.j x.v.3.z.z.j.j.5.d.5.7.7.6.x.k V.E.y.@.y.$ t t u MX2X6X<X2X6X",
"FXmXmXmXmXmXmXmXCXM m K C V.J.Q.E.K.j x.7.x.9.7.7.'.S.x.!.'.W.S.x.k 2.v.x.z.5.x.k.x.d.7.5.x.c.x.k !. Xy.t.*.o t t t yX2X6X6XrX4X",
"mXAXAXmXmXmXAXmXAXY K m A *XS.A.Z.A.f v.c.x.z.e.c.>.!.B.w.Q.Q.Q.Q.x 1.z.7.7.x.z.i.:.1.x.7.8.n.z.g J.U.*.&.y.$ t t u 6X2X6X6X<X6X",
"mXmXmXmXAXAXmXmXmXMXK i r &.S.Q.x.A.k n.5.x.R.7.5.7.Q.S.W.!.'.x.Q.p R.<.7.7.x.5.f :.z.x.7.z.c.z.i.'.w.y.&.y.o = t e 6X2X6X<XyX6X",
"AXAXAXAXmXmXAXFXCXGXK p t * K.Q.~.b.*.3.c.5.2.b.7.M.F.S.A.^.B.b.S.7 9.x.3.9.7.V.7 e.l.x.4.7.3.7.G.!.C.&.t.l X w t u 6X7X6X<XyX<X",
"mXmXmXmXAXAXmXmXNXZXi p u Z *.|.W.9X9X{.Q.[.9X9XfX9XfXfX[.wX{.9XfXaXfX9XhXkXjXjXaX|.kXfXkXkXkXkXgXfXfXH...  X t t Q 4X6X2X6XyXyX",
"mXNXmXmXmXmXNXNXFX2XM J K Z X.<.2.d.5.v.z.8.:.<.6.6.8.v.c.b.x.V.'.Q.3 2 jXjXw.P.].B./.].[.E I I eX).K.k.t.X % t t W 7X2X7XyX6X2X",
"mXmXNXNXmXmXmXNX2XuXq = t Z a.:.2.;.2.v.z.4.n.:.c.6.8.M.c.b.J.V.R.~.H.=XA.q.w.P.K.D.(.K.~.e ! _ V `.k.y.s.X % @ @ K ( 7X2X6X6X7X",
"6XyXuXmXGXGXGXGXGX@ # t F A k.N.oXm.oXoXs.H.m.oX&Xm.&XOX&X&X&X&X;XoXL.;X&X*X;X=X*X=X;X#XJ & S P C G .XXX*.o t % # @ vXvXuXuXvX6X",
"GXGXGXGXMX6X1XyXGXGXn F L A K.| 5 2 6 5 6 8 8 5 8 8 8 | 8 8 3 8 7 8 3 7 8 3 8 3 3 3 8 7 P X % & . P > , *.$ w u t xXvXuXsXvXvXvX",
"GX6XyX2X2XyX<X6X7XGXm p M A ^.K./.!.!.i.b.B.B.c.V.l.P.!.~.F.P.!.!.k c.Z.k.V.x.b.z 8.Z.J P R.&.g S.I ; t.y.o t t t xXE E E E / +X",
"mX6X2X6X6X<X6XyX7XGXm p M & (.].!./.].8 x.B.e.c.A.l.=._.!.F.P.]./.k c.Z.k.9.Q.c.z V.Z.* P R.H.t./.~ a u.y.$ u = t 4XE E E / / :X",
"<X6X<X<XyX2X2X2X6X<XL J M A F._./.V.F.k 5.x.A.U.z.n.a.K.F._.~.^.^.x x.e.q.7.7.A.j E.8.&.N I %XF P f &.*.t.* t u t >XE E :X:X/ :X",
"yXyX2X6XyX6X6X6X6X<XF J m D S.~./.!.].k b.x.B.8.z.Z.8 ].].[.~.^./.j A.V.9.7.E.A.j c.8.L.N = p.^ C U &.y.t.X t t t / :XE / :XE :X",
"<X<XyXyX1X<X6X6XrX7Xm n m C ].}./.G.^.t.E.x.7.B.V.B.x ].]./.^.].].k 5.E.V.9.V.q.l B.V.V.3.{ %.0 *.[.u.*.y.O t e w / :X+XE :XE :X",
"yX6X2X1X6XyX1XyX<X7XvXK i G 3.A./.(.C.aXE.J.c.Z.V.D.j S././.^.]./.x c.E.V.9.V.V.l D.Q.V.Z.A.Z.a 9X[.t.*.*.O w u u / E +X/ :X/ :X",
"2X6X2XyXyX<X<XGXR T yXp F = t [.A cX~.gXb.e.N cXJ.7.x ^.Q.U cX=X/.a.9.A.~ cXZ.q.k B.V.~ cX7.V.g G.P ` y.T + e y Y / +X+X:X/ :X/ ",
"yX<X6XyX<XyXyXuX7X7XsXM F y t ].A ^ _.gXA.r.d ~ >.V.l ^.[.a ! m./.s.V.A.C ! Z.q.k B.A.C ~ V.V.i.G.S G y.; + e y / ( :X+X:X/ :X/ ",
"6XyX4X6X6X4XyX7X7X2X2Xi m J = [.C.]._.gXU.A.V.w.A.B.c ].].^.C.]._.s.A.q.Z.Z.V.V.H D.A.V.b.C.q.(././.u.s.O # t e / / / / E E E E ",
"6X4XyX6X6XyX4X4X6X2XyXK n J = [.(.].[.gXE.A.Q.w.S.B.k ].[.(.(.!.[.a.A.q.K.x.V.~.z D.S.A.x.D.W.(.(./.u.s.* = t e / / / / E E ( E ",
"2X<XyX2X2XyX2XyX<X2X7XK M L t (.(.'._.gXi.A.S.V.E.I.z ^.[.`.).F.].g A.A.9.V.C.S.c V.w.A.S.Z.V.|.[.[.y.=.$ t D t / >X>X/ / / :X/ ",
"6XyX<X2X2X<X6X2XyX2X4XK M F t (.(.K._.qX8 A.V.A.V.D.x Y.{.`._.]./.g A.!.8.~.S.A.k 9.C.A.V.b.!.[.[.[.y.=.$ t D t / / / / / / / / ",
"2XyX2XyXyX2XyX2X4XrX7Xm m i Z }.).S.[.^.H E.e.S.U.S.f /.].{.{.|.C.k V.c.S.W.e.V.z C.!.W.V.7.XX9X(.0Xu.u.$ t t = :X/ / :X:X:X:X:X",
"W >X2X6X2X<X1XyXtXrX1Xu i M = S.{.!.{.).z W.C.S.E.S.f {.F.[.{.[.].f W.Q.A.!.q.A.z S.x.C.~.9.8 9X{.0Xu.u.$ t w @ :X:X:X:X:X:X:X:X",
"W ( <X6XyXyX4X6X4XtX7Xu D y C _.{.[.].0Xf V.^.S.w.K.=.{.G.(.{.(.(.H c.!.D.D.V.C.a D.x.Q.V.r.F ).{.(.y.y.$ % @ * W E >X( E E / / ",
">X( W 1X6X4X1XW >XW / @ & % Z |.{.|./.(..XV.C.S.C.K.H.{.(.qX{.{.).p V.Q.S.D.S.S.l D.!.!.!.C.p ).{.0Xa.u.o @ @ * Y W >XE E >X>X/ ",
">XKXKXKXKXKXLXKXIXKXPXKXm m y qX{.(.P.{.gXe.q.C.!.!.G.qX}./.`.0X{.l W.W.Z.S.!.S.l S.!.Z.!.W.a qX0X).u.*.$ u t UXKXLXKXLXKXLXKXLX",
"LXVXVXmXmXMXFXmXDXmXIXLXm m D qX{.(.qX/.gXC.V.C.!.'.G.}.qXG.).0X(.j ~.V.'.S.!.S.x !.S.B.!.U.a (.0X{.y.k.$ # t KXDXmXFXmXKXLXKXKX",
"FXmXmXmXDXmXmXAXHXmXNXKXm M C s F.aXpXP.kXS.S.#X3X!.V.|.`.K.aXpX}.l !.D.-X-XW.C.3 S.=X%X;X!.8 qX8XdXk.T $ t u DXmXmXAXmXmXDXmXAX",
"mXAXFXmXmXDXMXmXAXmXFXHXn i Z s (.> pX}.gXS.S..XpX!.W.|.`.A.p.p.qXp V.S.p.$XW./.*X!.3 %Xp.!.a.qX, #Xk., + t u mXmXmXmXmXDXmXmXAX",
"<XNXmXmXNXNXFXmXAXMXmXVX= @ % Z qXt.> qXfXw.F.1 < U.~.}.0X3.> > qXl A.C.> a Q.w.C.S.k.9 I.~.qX{.1 ; u.* @ $ * 5XmXFXmXNXmXmXCXmX",
"uX1X6X2X2X6XyXuXuXsXuX- + i L Z qX=XaXqXqXY.F.-X%XW.~.wX).fXpXaX).l '.F.pXa [.^.C.B.L.-XP.~.qXqXeX+Xu.$ % = @ @ nXmXnXnXuX6X2XyX",
"uXxXvXxXvXuXxXvXbXbXvXvXn L i y pXaXeXpXaX$X$X-X#X8X-XpXpXeXaXpXpXp $X-XlXF -X$X-X%X-X%X-X-XpXeXeX.X.X. u e u nXCXnXnXnXnXnXnXnX",
"vX6X( E W E >X/ :X,X/ sXn F L y < 9 9 < 7 < < 7 7 , 9 < < 1 1 < 7 e 7 , 9 A 1 < , < < 7 7 1 < 9 1 ; : * e e u CXE >XE E E nXnXnX"
};
